<?xml version="1.0" encoding="UTF-8"?>
<svg fill="none" stroke-width="38" version="1.1" viewBox="0 0 400 400" xmlns="http://www.w3.org/2000/svg">
  <path class="cls-1" d="m313.73 84.379a48.161 48.161 0 0 0-66.926-1.1475 4.6575 4.6575 0 0 0 0 6.75l5.805 5.94a4.59 4.59 0 0 0 6.0075 0.405 27.608 27.608 0 0 1 36.18 41.648c-38.239 38.205-89.269-68.918-205.1-13.702a15.694 15.694 0 0 0-6.75 22.072l19.879 34.324a15.66 15.66 0 0 0 21.262 5.8388l0.4725-0.27-0.37125 0.27 8.7075-4.86a203.48 203.48 0 0 0 27.742-20.689 4.86 4.86 0 0 1 6.3112-0.2025 4.5225 4.5225 0 0 1 0.2025 6.75 207.93 207.93 0 0 1-29.295 22.039h-0.30375l-8.8088 4.9275a24.772 24.772 0 0 1-12.184 3.1725 25.144 25.144 0 0 1-21.836-12.521l-18.799-32.434c-35.944 25.582-58.016 74.722-46.069 136.96a4.59 4.59 0 0 0 4.4888 3.7462h21.195a4.59 4.59 0 0 0 4.6912-4.185 31.354 31.354 0 0 1 62.168 0 4.5562 4.5562 0 0 0 4.5225 4.0162h20.722a4.59 4.59 0 0 0 4.5225-4.0162 31.354 31.354 0 0 1 62.168 0 4.59 4.59 0 0 0 4.5225 4.0162h20.588a4.59 4.59 0 0 0 4.59-4.5225c0.4725-29.025 8.3025-62.37 30.611-79.076 77.288-57.814 56.97-107.36 39.083-125.25zm-78.806 87.311-14.749-7.3912a9.2475 9.2475 0 1 1 14.749 7.425z" fill="#02303a" stroke-width="128.25"/>
  <path d="m239.94 347.9h122.88c5.1874 0 9.408-4.2202 9.408-9.408v-165.89c0-5.1878-4.2206-9.408-9.408-9.408h-92.352l-5.625 4.2055-29.918 29.793-4.393 5.9375v135.36c0 5.1878 4.2205 9.408 9.408 9.408z" fill="#f2f2f2" stroke-width="14.592"/>
  <path d="m224.8 199.97c0.01-0.0768 0.0192-0.1344 0.0384-0.20928 5e-3 -0.0192 0.01-0.0384 0.01-0.0768 0.0192-0.0768 0.0384-0.1536 0.0576-0.24192 2e-3 -0.01 5e-3 -0.0192 0.01-0.0384 0.0192-0.0768 0.0576-0.1536 0.0768-0.24 2e-3 -0.01 5e-3 -0.0192 0.01-0.0192 0.0384-0.0768 0.0576-0.1536 0.096-0.21888 0.01-0.01 0.01-0.0192 0.0192-0.0384 0.0384-0.0576 0.0768-0.1344 0.1152-0.19392 0.01-0.0192 0.0192-0.0384 0.0384-0.0576 0.0384-0.0576 0.0768-0.1152 0.1344-0.1728 0.0192-0.0192 0.0192-0.0384 0.0384-0.0576 0.0576-0.0576 0.1152-0.1344 0.1728-0.192 0.01-5e-3 0.01-0.01 0.0192-0.0192l39.936-39.936c0.01-0.01 0.0192-0.01 0.0192-0.0192 0.0576-0.0576 0.1152-0.1152 0.192-0.1728l0.0576-0.0576c0.0576-0.0384 0.096-0.0768 0.1536-0.1152 0.0192-0.01 0.0384-0.0192 0.0576-0.0384 0.0576-0.0384 0.1152-0.0768 0.192-0.1152 0.0192-0.01 0.0192-0.0192 0.0384-0.0192 0.0768-0.0384 0.1344-0.0768 0.21312-0.096 0.01-5e-3 0.0192-0.01 0.0192-0.01 0.0768-0.0384 0.1536-0.0576 0.23616-0.0768 0.01-2e-3 0.0192-5e-3 0.0384-0.01 0.0768-0.0192 0.1536-0.0384 0.24192-0.0576 0.0192-5e-3 0.0576-0.01 0.0768-0.01 0.0768-0.01 0.1344-0.0192 0.20544-0.0384 0.096-0.01 0.192-0.0192 0.288-0.0192h95.232c8.3635 0 15.168 6.8045 15.168 15.168v165.89c0 8.3635-6.8045 15.168-15.168 15.168h-122.88c-8.3635 0-15.168-6.8045-15.168-15.168v-138.24c0-0.096 5e-3 -0.192 0.0192-0.288zm39.921-32.696-30.103 30.103h20.695c5.1874 0 9.408-4.2202 9.408-9.408zm-24.768 180.63h122.88c5.1874 0 9.408-4.2202 9.408-9.408v-165.89c0-5.1878-4.2206-9.408-9.408-9.408h-92.352v24.768c0 8.3635-6.8045 15.168-15.168 15.168h-24.768v135.36c0 5.1878 4.2205 9.408 9.408 9.408z" fill="#000" stroke-width="14.592"/>
  <path d="m302.76 303.5v-60.6h25.8-51.6" stroke="#000" stroke-width="11.4"/>
  <path d="m331.56 221.3h16.8v89.4h-16.8m-57.6 0h-16.8v-89.4h16.8" stroke="#888" stroke-width="11.4"/>
</svg>
